<?xml version="1.0" encoding="UTF-8"?>
<svg version="1.1" xmlns="http://www.w3.org/2000/svg" width="318" height="159">
<path d="M0 0 C3.55715435 1.18571812 3.8638974 2.02500566 5.875 5.0625 C13.63995005 15.19696058 25.76125804 19.40963578 37.30883789 23.85546875 C44.68856635 26.71746413 50.80925433 29.79994268 56 36 C58.21683799 41.23979888 58.67888034 46.53881454 57 52 C55.69067383 54.60546875 55.69067383 54.60546875 53 57 C49.09527103 57.73449066 45.2307615 57.60407168 41.26953125 57.5234375 C40.12336838 57.51873444 38.97720551 57.51403137 37.79631042 57.50918579 C34.13443079 57.48782354 30.47399375 57.43117187 26.8125 57.375 C24.33399793 57.35849715 21.85548052 57.34414799 19.37695312 57.33203125 C14.8589463 57.29802754 10.34108158 57.26345403 5.82348633 57.19287109 C4.91399734 57.18001068 4.00450836 57.16715027 3.06745911 57.15390015 C1 57 1 57 0 56 C-0.09365006 54.2507128 -0.11744438 52.49763746 -0.11352539 50.74584961 C-0.11344986 49.62476303 -0.11337433 48.50367645 -0.11329651 47.34861755 C-0.10813522 46.1288472 -0.10297394 44.90907684 -0.09765625 43.65234375 C-0.0962413 42.41078018 -0.09482635 41.16921661 -0.09336853 39.89002991 C-0.08870591 36.58394509 -0.07971497 33.27792854 -0.06866455 29.97186279 C-0.05844827 26.6003885 -0.05387045 23.22890717 -0.04882812 19.85742188 C-0.03777395 13.23826225 -0.02101736 6.61913507 0 0 Z " fill="#004D7B" transform="translate(5,65)"/>
<path d="M0 0 C0.97763809 -0.00315216 1.95527618 -0.00630432 2.96253967 -0.009552 C4.02089523 -0.00752777 5.07925079 -0.00550354 6.16967773 -0.00341797 C7.25208237 -0.00437469 8.334487 -0.00533142 9.44969177 -0.00631714 C11.74038755 -0.00699845 14.03108526 -0.00514758 16.32177734 -0.00097656 C19.84208477 0.00437752 23.3622649 -0.0009259 26.88256836 -0.00732422 C29.10327177 -0.00666353 31.3239751 -0.00538256 33.54467773 -0.00341797 C35.13524742 -0.00645432 35.13524742 -0.00645432 36.75794983 -0.009552 C38.21967873 -0.00482376 38.21967873 -0.00482376 39.7109375 0 C40.57316422 0.00079559 41.43539093 0.00159119 42.32374573 0.00241089 C44.29077148 0.12939453 44.29077148 0.12939453 45.29077148 1.12939453 C45.38424064 2.78677897 45.40822126 4.44814097 45.40429688 6.1081543 C45.40422134 7.16917862 45.40414581 8.23020294 45.40406799 9.32337952 C45.39890671 10.47752853 45.39374542 11.63167755 45.38842773 12.82080078 C45.38701279 13.99577621 45.38559784 15.17075165 45.38414001 16.3813324 C45.3785214 20.15154517 45.36596574 23.92169957 45.35327148 27.69189453 C45.34825888 30.2407218 45.34369556 32.78955 45.33959961 35.33837891 C45.32854593 41.60207086 45.3117897 47.86572853 45.29077148 54.12939453 C43.13721477 52.01674586 41.16709453 49.97003213 39.31420898 47.58251953 C32.66847453 39.52552872 21.89744649 36.11141977 12.43579102 32.50146484 C4.89906416 29.57908794 -2.6195712 26.29261512 -8.33422852 20.44189453 C-10.32686076 15.64146231 -10.37230569 11.25459101 -9.70922852 6.12939453 C-7.40289746 0.88773305 -5.51590191 0.00508494 0 0 Z " fill="#0A6FB6" transform="translate(42.709228515625,34.87060546875)"/>
<path d="M0 0 C4.62 0 9.24 0 14 0 C16.97 8.25 19.94 16.5 23 25 C25.20057358 22.79942642 25.68235643 21.45015452 26.65625 18.53515625 C26.95660156 17.65279297 27.25695312 16.77042969 27.56640625 15.86132812 C27.87449219 14.93771484 28.18257812 14.01410156 28.5 13.0625 C29.11062876 11.23955598 29.72505977 9.41788007 30.34375 7.59765625 C30.74883789 6.38348022 30.74883789 6.38348022 31.16210938 5.14477539 C32 3 32 3 34 0 C37.00390625 -0.328125 37.00390625 -0.328125 40.5625 -0.25 C42.32787109 -0.22679687 42.32787109 -0.22679687 44.12890625 -0.203125 C47 0 47 0 48 1 C48.08865208 3.8843382 48.11521296 6.74462158 48.09765625 9.62890625 C48.0962413 10.49313705 48.09482635 11.35736786 48.09336853 12.24778748 C48.08775239 15.01939292 48.07519719 17.7909188 48.0625 20.5625 C48.05748708 22.4368478 48.05292381 24.31119685 48.04882812 26.18554688 C48.03777772 30.79039544 48.0205023 35.39518421 48 40 C44.37 40 40.74 40 37 40 C36.67 32.74 36.34 25.48 36 18 C35.43410156 19.50433594 34.86820313 21.00867188 34.28515625 22.55859375 C33.54441256 24.51828274 32.80351944 26.47791526 32.0625 28.4375 C31.68931641 29.43072266 31.31613281 30.42394531 30.93164062 31.44726562 C30.57392578 32.39150391 30.21621094 33.33574219 29.84765625 34.30859375 C29.51773682 35.18314209 29.18781738 36.05769043 28.84790039 36.95874023 C28 39 28 39 27 40 C24.66702567 40.04092937 22.33294775 40.04241723 20 40 C16.66666667 32 13.33333333 24 10 16 C10.05329468 17.0372522 10.05329468 17.0372522 10.10766602 18.09545898 C10.26465181 21.20922906 10.41368123 24.32332938 10.5625 27.4375 C10.61857422 28.52611328 10.67464844 29.61472656 10.73242188 30.73632812 C10.78076172 31.77080078 10.82910156 32.80527344 10.87890625 33.87109375 C10.9260376 34.82943115 10.97316895 35.78776855 11.02172852 36.77514648 C11 39 11 39 10 40 C6.7 40 3.4 40 0 40 C0 26.8 0 13.6 0 0 Z M37 13 C38 16 38 16 38 16 Z " fill="#12335C" transform="translate(221,37)"/>
<path d="M0 0 C0.99 0.99 1.98 1.98 3 3 C1.02 5.31 -0.96 7.62 -3 10 C-5.40740094 9.53405143 -7.791785 9.05610133 -10.16015625 8.41796875 C-14.97981555 7.16827771 -14.97981555 7.16827771 -19.875 7.625 C-22.88165826 9.57048476 -24.33451255 11.62149029 -25.875 14.8125 C-26.07842705 18.37247344 -24.6119341 20.89126996 -23 24 C-19.57905758 26.28062828 -18.31812778 26.21925007 -14.3125 26.125 C-13.31863281 26.10695313 -12.32476562 26.08890625 -11.30078125 26.0703125 C-10.54152344 26.04710938 -9.78226563 26.02390625 -9 26 C-9 25.01 -9 24.02 -9 23 C-10.299375 23.020625 -11.59875 23.04125 -12.9375 23.0625 C-14.29165633 23.08399454 -15.64756083 23.07148199 -17 23 C-18 22 -18 22 -18.125 19 C-18 16 -18 16 -17 15 C-15.58429877 14.91348389 -14.164405 14.89295096 -12.74609375 14.90234375 C-11.46508789 14.90717773 -11.46508789 14.90717773 -10.15820312 14.91210938 C-8.81145508 14.92467773 -8.81145508 14.92467773 -7.4375 14.9375 C-6.53580078 14.94201172 -5.63410156 14.94652344 -4.70507812 14.95117188 C-2.47002411 14.96299756 -0.23500398 14.98093362 2 15 C2 20.94 2 26.88 2 33 C-7.76938725 37.32644292 -16.61060476 39.69622715 -27 36 C-32.82754288 32.8620923 -36.82210337 28.83766006 -39.375 22.6875 C-40.47416559 16.20242303 -39.96743039 10.20072463 -36.359375 4.56640625 C-26.91377927 -6.31774285 -11.94307381 -5.85406405 0 0 Z " fill="#1A7CBE" transform="translate(180,86)"/>
<path d="M0 0 C3.62996423 1.91398114 5.34932448 3.30436513 7.4375 6.8125 C8.1875 9.625 8.1875 9.625 8.4375 11.8125 C5.67297967 13.19476016 3.3913637 12.90775387 0.3125 12.875 C-0.78320312 12.86597656 -1.87890625 12.85695313 -3.0078125 12.84765625 C-4.27238281 12.83025391 -4.27238281 12.83025391 -5.5625 12.8125 C-6.2225 11.4925 -6.8825 10.1725 -7.5625 8.8125 C-10.2025 8.8125 -12.8425 8.8125 -15.5625 8.8125 C-15.5625 10.1325 -15.5625 11.4525 -15.5625 12.8125 C-13.93441406 13.17601563 -13.93441406 13.17601563 -12.2734375 13.546875 C-10.82797493 13.88477534 -9.38267061 14.22335313 -7.9375 14.5625 C-6.86822266 14.79839844 -6.86822266 14.79839844 -5.77734375 15.0390625 C-0.40972444 16.31941206 4.256611 18.15750469 7.875 22.5625 C8.76915972 26.13913887 8.61892436 29.35752062 7.4375 32.8125 C3.14148257 37.30379095 -0.88281534 39.55443406 -7.05078125 40.1484375 C-21.2024054 40.29298933 -21.2024054 40.29298933 -26.5625 35.8125 C-29.125 32.8125 -29.125 32.8125 -30.5625 29.8125 C-30.2325 28.4925 -29.9025 27.1725 -29.5625 25.8125 C-25.6025 25.8125 -21.6425 25.8125 -17.5625 25.8125 C-17.2325 27.1325 -16.9025 28.4525 -16.5625 29.8125 C-12.89944766 30.56176071 -10.13894848 31.0505014 -6.5625 29.8125 C-6.5625 28.8225 -6.5625 27.8325 -6.5625 26.8125 C-8.19058594 26.35810547 -8.19058594 26.35810547 -9.8515625 25.89453125 C-11.29710284 25.4721331 -12.74240289 25.04891202 -14.1875 24.625 C-15.25677734 24.33012695 -15.25677734 24.33012695 -16.34765625 24.02929688 C-21.46436514 22.50367266 -24.77133219 20.60950037 -28.5625 16.8125 C-29.60252166 13.17242419 -29.79280472 10.80281032 -28.9375 7.125 C-23.11370592 -2.66956276 -9.89060474 -3.27207976 0 0 Z " fill="#1879BD" transform="translate(215.5625,83.1875)"/>
<path d="M0 0 C3.22498175 1.92953453 5.48368809 4.05614682 7.4375 7.3125 C7.4375 8.6325 7.4375 9.9525 7.4375 11.3125 C4.86465862 12.59892069 2.87221047 12.55252723 0 12.625 C-0.96808594 12.66238281 -1.93617188 12.69976562 -2.93359375 12.73828125 C-5.5625 12.3125 -5.5625 12.3125 -7.2109375 10.30859375 C-7.65695313 9.64988281 -8.10296875 8.99117187 -8.5625 8.3125 C-11.68836875 7.97852213 -11.68836875 7.97852213 -14.5625 8.3125 C-14.5625 9.6325 -14.5625 10.9525 -14.5625 12.3125 C-13.54929687 12.54324219 -12.53609375 12.77398437 -11.4921875 13.01171875 C1.87266849 16.21062949 1.87266849 16.21062949 6.4375 21.3125 C8.04404601 24.52559202 7.90667159 27.82722534 7.4375 31.3125 C5.37813365 35.01935943 2.83151654 37.29397429 -1.1796875 38.8046875 C-8.9737356 40.46571414 -18.07831637 40.80670971 -25.046875 36.51953125 C-28.07852986 34.10514632 -30.05869471 31.7076531 -31.375 28.0625 C-31.4678125 27.19625 -31.4678125 27.19625 -31.5625 26.3125 C-29.75600099 24.50600099 -27.12498958 25.05553034 -24.6875 25 C-23.61757812 24.96261719 -22.54765625 24.92523438 -21.4453125 24.88671875 C-18.5625 25.3125 -18.5625 25.3125 -16.83203125 27.27734375 C-16.41308594 27.94894531 -15.99414062 28.62054688 -15.5625 29.3125 C-12.58293802 30.38208635 -11.20022095 30.57103552 -8.25 29.375 C-7.4146875 28.8490625 -7.4146875 28.8490625 -6.5625 28.3125 C-9.16665393 25.0550071 -11.92093681 24.46820159 -15.875 23.4375 C-21.30757222 21.86284139 -24.68190854 20.40867988 -28.5625 16.3125 C-30.16377074 13.10995853 -29.96951607 10.85935436 -29.5625 7.3125 C-27.3028165 3.41865092 -24.92861588 0.88361233 -20.75 -0.86328125 C-14.03163689 -2.60050505 -6.40780704 -2.96947155 0 0 Z " fill="#187ABD" transform="translate(131.5625,83.6875)"/>
<path d="M0 0 C3.63497036 1.70938197 6.45531738 3.66887868 8.3515625 7.23828125 C9.1015625 9.42578125 9.1015625 9.42578125 9.3515625 11.23828125 C7.54506349 13.04478026 4.91405208 12.49525091 2.4765625 12.55078125 C1.40664062 12.58816406 0.33671875 12.62554687 -0.765625 12.6640625 C-3.6484375 12.23828125 -3.6484375 12.23828125 -5.26953125 10.234375 C-5.95208984 9.24630859 -5.95208984 9.24630859 -6.6484375 8.23828125 C-8.6973023 7.7577041 -8.6973023 7.7577041 -10.8359375 7.98828125 C-12.723125 8.11203125 -12.723125 8.11203125 -14.6484375 8.23828125 C-14.53537053 10.19722486 -14.53537053 10.19722486 -13.6484375 12.23828125 C-10.25020205 13.85018763 -6.79521371 14.74256221 -3.1484375 15.61328125 C1.17314543 16.76065569 4.17251562 17.95326614 7.3515625 21.23828125 C9.09164904 24.71845433 8.93621118 28.4413494 8.3515625 32.23828125 C5.50399099 36.06216299 2.83482076 37.81235605 -1.6484375 39.23828125 C-9.08881776 39.91254121 -17.58581468 40.65299138 -24.16015625 36.5859375 C-26.89162536 34.11255996 -28.20451442 31.62836152 -29.6484375 28.23828125 C-29.3184375 27.57828125 -28.9884375 26.91828125 -28.6484375 26.23828125 C-24.6884375 26.23828125 -20.7284375 26.23828125 -16.6484375 26.23828125 C-16.3184375 27.55828125 -15.9884375 28.87828125 -15.6484375 30.23828125 C-12.0184375 30.23828125 -8.3884375 30.23828125 -4.6484375 30.23828125 C-4.9784375 28.91828125 -5.3084375 27.59828125 -5.6484375 26.23828125 C-8.2711612 25.20835322 -10.68695651 24.4304727 -13.3984375 23.73828125 C-18.68331297 22.36003135 -22.59531103 21.13670823 -26.6484375 17.23828125 C-28.25373927 14.02767772 -28.1239932 10.72122444 -27.6484375 7.23828125 C-22.09843315 -2.36749552 -9.76752226 -2.80924313 0 0 Z " fill="#0F325A" transform="translate(130.6484375,37.76171875)"/>
<path d="M0 0 C0.93005859 -0.020625 1.86011719 -0.04125 2.81835938 -0.0625 C9.9069112 -0.10235131 15.78347235 0.64792719 21.4375 5.3125 C23.63415568 9.61428404 23.86030535 13.51965326 22.9375 18.25 C20.5625 21.375 20.5625 21.375 17.9375 23.25 C17.2775 23.25 16.6175 23.25 15.9375 23.25 C16.5871875 24.39339844 17.236875 25.53679688 17.90625 26.71484375 C18.75011164 28.20566598 19.59385558 29.69655484 20.4375 31.1875 C20.86675781 31.94224609 21.29601562 32.69699219 21.73828125 33.47460938 C22.14433594 34.19326172 22.55039063 34.91191406 22.96875 35.65234375 C23.53432617 36.64995728 23.53432617 36.64995728 24.11132812 37.66772461 C24.9375 39.25 24.9375 39.25 24.9375 40.25 C20.73001915 40.99615424 17.10745907 41.29898099 12.9375 40.25 C9.59579349 36.55915997 5.9375 31.4183653 5.9375 26.25 C3.9575 26.25 1.9775 26.25 -0.0625 26.25 C-0.0625 30.87 -0.0625 35.49 -0.0625 40.25 C-3.6925 40.25 -7.3225 40.25 -11.0625 40.25 C-11.08714775 34.71411467 -11.10533496 29.178261 -11.11743164 23.64233398 C-11.12247244 21.7575627 -11.12930498 19.87279535 -11.13793945 17.98803711 C-11.15001617 15.28498364 -11.15573068 12.58198169 -11.16015625 9.87890625 C-11.16531754 9.03099014 -11.17047882 8.18307404 -11.17579651 7.3094635 C-11.17599195 5.28928932 -11.12456211 3.26922066 -11.0625 1.25 C-8.73620439 -1.07629561 -3.11946154 0.01680518 0 0 Z M-0.0625 8.25 C-0.0625 11.88 -0.0625 15.51 -0.0625 19.25 C2.598125 19.0953125 2.598125 19.0953125 5.3125 18.9375 C6.31023437 18.87949219 7.30796875 18.82148437 8.3359375 18.76171875 C9.19445312 18.59285156 10.05296875 18.42398438 10.9375 18.25 C13.23387779 15.49104365 13.23387779 15.49104365 12.6875 12.6875 C12.09941948 10.09999433 12.09941948 10.09999433 9.9375 8.25 C7.49737051 8.00712511 7.49737051 8.00712511 4.8125 8.125 C3.20375 8.16625 1.595 8.2075 -0.0625 8.25 Z " fill="#11345C" transform="translate(192.0625,36.75)"/>
<path d="M0 0 C3.46679688 0.04882812 3.46679688 0.04882812 6.93359375 0.09765625 C11.3813924 8.6486228 15.22163628 17.34213049 18.80859375 26.28515625 C19.31079304 27.5229508 19.81339555 28.76058184 20.31640625 29.99804688 C23.93359375 38.94661101 23.93359375 38.94661101 23.93359375 40.09765625 C19.97359375 40.09765625 16.01359375 40.09765625 11.93359375 40.09765625 C10.94359375 36.63265625 10.94359375 36.63265625 9.93359375 33.09765625 C4.98359375 33.09765625 0.03359375 33.09765625 -5.06640625 33.09765625 C-5.72640625 35.40765625 -6.38640625 37.71765625 -7.06640625 40.09765625 C-10.69640625 40.09765625 -14.32640625 40.09765625 -18.06640625 40.09765625 C-17.14427098 35.48697989 -15.73493174 31.50981918 -13.94140625 27.20703125 C-13.48096924 26.08920258 -13.48096924 26.08920258 -13.01123047 24.9487915 C-12.36446031 23.38131097 -11.71549062 21.81473639 -11.06445312 20.24902344 C-10.06488743 17.84400187 -9.07294156 15.43594258 -8.08203125 13.02734375 C-7.45226818 11.50372213 -6.82207494 9.98027823 -6.19140625 8.45703125 C-5.89347168 7.73416931 -5.59553711 7.01130737 -5.28857422 6.26654053 C-2.73020713 0.1290268 -2.73020713 0.1290268 0 0 Z M1.93359375 12.09765625 C0.61359375 16.38765625 -0.70640625 20.67765625 -2.06640625 25.09765625 C0.90359375 25.09765625 3.87359375 25.09765625 6.93359375 25.09765625 C6.4816313 23.491683 6.02177048 21.88793117 5.55859375 20.28515625 C5.30335938 19.39183594 5.048125 18.49851562 4.78515625 17.578125 C3.98092714 14.89297729 3.98092714 14.89297729 1.93359375 12.09765625 Z " fill="#10345C" transform="translate(289.06640625,36.90234375)"/>
<path d="M0 0 C3.96 0 7.92 0 12 0 C14.64 4.95 17.28 9.9 20 15 C22.42277093 11.76963876 24.29437675 8.78383006 26.1875 5.25 C27.115625 3.5175 28.04375 1.785 29 0 C32.96 0 36.92 0 41 0 C39.55199764 5.06409476 37.31382048 9.13105167 34.5625 13.5625 C33.96985352 14.53219727 33.96985352 14.53219727 33.36523438 15.52148438 C32.97787109 16.15505859 32.59050781 16.78863281 32.19140625 17.44140625 C31.81685303 18.05685303 31.4422998 18.6722998 31.05639648 19.30639648 C30.16583268 20.73413883 29.21787189 22.1258436 28.2578125 23.5078125 C26.58942709 26.8134954 26.48459585 29.62964879 26.3125 33.3125 C26.24675781 34.56675781 26.18101562 35.82101563 26.11328125 37.11328125 C26.07589844 38.06589844 26.03851563 39.01851562 26 40 C22.04 40 18.08 40 14 40 C14.11794922 38.75863281 14.11794922 38.75863281 14.23828125 37.4921875 C14.50371293 24.55588554 8.16337924 15.64116078 1.17749023 5.12207031 C0 3 0 3 0 0 Z " fill="#10335B" transform="translate(138,37)"/>
<path d="M0 0 C0.87454834 0.00523682 1.74909668 0.01047363 2.65014648 0.01586914 C3.59438477 0.0190918 4.53862305 0.02231445 5.51147461 0.02563477 C6.50469727 0.03401367 7.49791992 0.04239258 8.52124023 0.05102539 C9.51833008 0.05553711 10.51541992 0.06004883 11.54272461 0.06469727 C14.01478872 0.07652532 16.48673541 0.0930069 18.95874023 0.11352539 C18.29874023 0.77352539 17.63874023 1.43352539 16.95874023 2.11352539 C11.01874023 2.11352539 5.07874023 2.11352539 -1.04125977 2.11352539 C-1.04125977 14.65352539 -1.04125977 27.19352539 -1.04125977 40.11352539 C-1.70125977 40.11352539 -2.36125977 40.11352539 -3.04125977 40.11352539 C-3.06590752 34.57764006 -3.08409472 29.04178639 -3.09619141 23.50585938 C-3.10123221 21.62108809 -3.10806475 19.73632074 -3.11669922 17.8515625 C-3.12877594 15.14850903 -3.13449045 12.44550708 -3.13891602 9.74243164 C-3.1440773 8.89451553 -3.14923859 8.04659943 -3.15455627 7.17298889 C-3.15475171 5.15281471 -3.10332187 3.13274605 -3.04125977 1.11352539 C-2.04125977 0.11352539 -2.04125977 0.11352539 0 0 Z " fill="#00214F" transform="translate(184.041259765625,36.886474609375)"/>
<path d="M0 0 C0.99 0.33 1.98 0.66 3 1 C3.33 1.99 3.66 2.98 4 4 C3.34 4 2.68 4 2 4 C2 20.83 2 37.66 2 55 C1.34 55 0.68 55 0 55 C0 36.85 0 18.7 0 0 Z " fill="#004274" transform="translate(5,65)"/>
<path d="M0 0 C1.18613892 0.00785522 1.18613892 0.00785522 2.39624023 0.01586914 C3.67724609 0.02070312 3.67724609 0.02070312 4.98413086 0.02563477 C5.88196289 0.03401367 6.77979492 0.04239258 7.70483398 0.05102539 C8.6065332 0.05553711 9.50823242 0.06004883 10.43725586 0.06469727 C12.67234712 0.07652315 14.90730835 0.09300319 17.14233398 0.11352539 C17.14233398 0.77352539 17.14233398 1.43352539 17.14233398 2.11352539 C11.20233398 2.11352539 5.26233398 2.11352539 -0.85766602 2.11352539 C-0.85766602 3.43352539 -0.85766602 4.75352539 -0.85766602 6.11352539 C1.78233398 6.11352539 4.42233398 6.11352539 7.14233398 6.11352539 C7.47233398 7.76352539 7.80233398 9.41352539 8.14233398 11.11352539 C7.48233398 11.11352539 6.82233398 11.11352539 6.14233398 11.11352539 C6.14233398 10.12352539 6.14233398 9.13352539 6.14233398 8.11352539 C4.84295898 8.13415039 3.54358398 8.15477539 2.20483398 8.17602539 C0.85067765 8.19751994 -0.50522684 8.18500738 -1.85766602 8.11352539 C-2.85766602 7.11352539 -2.85766602 7.11352539 -2.98266602 4.11352539 C-2.81844581 0.17224041 -2.81844581 0.17224041 0 0 Z " fill="#0070B3" transform="translate(164.857666015625,100.886474609375)"/>
<path d="M0 0 C3.96 0 7.92 0 12 0 C10.58707905 4.8274799 8.57025846 8.7162359 6 13 C5.34 12.34 4.68 11.68 4 11 C5.65 8.36 7.3 5.72 9 3 C3.42169984 2.87530901 3.42169984 2.87530901 -2 4 C-1.34 2.68 -0.68 1.36 0 0 Z " fill="#02264F" transform="translate(167,37)"/>
<path d="M0 0 C1.65322266 0.01740234 1.65322266 0.01740234 3.33984375 0.03515625 C4.99693359 0.04869141 4.99693359 0.04869141 6.6875 0.0625 C7.54214844 0.07410156 8.39679688 0.08570313 9.27734375 0.09765625 C9.60734375 1.08765625 9.93734375 2.07765625 10.27734375 3.09765625 C6.97734375 3.09765625 3.67734375 3.09765625 0.27734375 3.09765625 C0.60734375 4.08765625 0.93734375 5.07765625 1.27734375 6.09765625 C-1.72265625 5.09765625 -1.72265625 5.09765625 -2.91015625 3.03515625 C-3.31234375 2.07609375 -3.31234375 2.07609375 -3.72265625 1.09765625 C-2.72265625 0.09765625 -2.72265625 0.09765625 0 0 Z " fill="#012450" transform="translate(140.72265625,36.90234375)"/>
<path d="M0 0 C0.66 0 1.32 0 2 0 C2.33 1.65 2.66 3.3 3 5 C6.3 4.67 9.6 4.34 13 4 C13.33 4.99 13.66 5.98 14 7 C10.04 7 6.08 7 2 7 C1.34 4.69 0.68 2.38 0 0 Z " fill="#092B53" transform="translate(299,70)"/>
<path d="M0 0 C0.99 0.33 1.98 0.66 3 1 C5.05893621 1.22325814 7.12233653 1.40705759 9.1875 1.5625 C10.27417969 1.64628906 11.36085937 1.73007812 12.48046875 1.81640625 C13.72763672 1.90728516 13.72763672 1.90728516 15 2 C14.67 2.66 14.34 3.32 14 4 C10.04 4 6.08 4 2 4 C1.34 2.68 0.68 1.36 0 0 Z " fill="#001151" transform="translate(125,46)"/>
<path d="M0 0 C0.66 0 1.32 0 2 0 C2.38218767 1.65614657 2.71395102 3.32457024 3 5 C2 6 2 6 -0.50390625 6.09765625 C-2.01791016 6.08025391 -2.01791016 6.08025391 -3.5625 6.0625 C-4.57441406 6.05347656 -5.58632813 6.04445313 -6.62890625 6.03515625 C-7.41136719 6.02355469 -8.19382812 6.01195313 -9 6 C-5.48375245 4.05841983 -3.0284349 3.81688932 1 4 C0.67 2.68 0.34 1.36 0 0 Z " fill="#00204E" transform="translate(295,58)"/>
<path d="M0 0 C1.32 0.66 2.64 1.32 4 2 C2.02 4.64 0.04 7.28 -2 10 C-2.99 9.67 -3.98 9.34 -5 9 C-4.175 8.2575 -3.35 7.515 -2.5 6.75 C0.44844853 4.12612615 0.44844853 4.12612615 0 0 Z " fill="#046FB9" transform="translate(179,86)"/>
<path d="M0 0 C2.64 0 5.28 0 8 0 C8 0.99 8 1.98 8 3 C5.69 3 3.38 3 1 3 C0.67 2.01 0.34 1.02 0 0 Z " fill="#092D57" transform="translate(240,74)"/>
<path d="M0 0 C0.99 0.33 1.98 0.66 3 1 C4.6875 4.5625 4.6875 4.5625 6 8 C2.24623848 6.74874616 1.75926711 5.4347596 0 2 C0 1.34 0 0.68 0 0 Z " fill="#072A59" transform="translate(208,64)"/>
</svg>
